#Comment line ignore any data following # character 
#Hierarchical Translation and Rotation (.htr) file 
[Header]	
#Header keywords are followed by a single value 
FileType HTR		#Single word string
DataType HTRS		#Translation followed by rotation and scale data
FileVersion 1		#integer
NumSegments 84		#integer
NumFrames 2		#integer
DataFrameRate 30		#integer, data frame rate in this file
EulerRotationOrder ZYX
CalibrationUnits mm
RotationUnits Degrees
GlobalAxisofGravity Y
BoneLengthAxis Y
ScaleFactor 1.00
[SegmentNames&Hierarchy]
#CHILD	PARENT
MASTER GLOBAL
root MASTER
chest root
L_mid_tent01 root
R_mid_tent01 root
spine01 root
Bip01_Neck chest
L_humerus chest
R_humerus chest
weapon_bone chest
Bip01_Head Bip01_Neck
eye_left_bone Bip01_Head
eye_right_bone Bip01_Head
L_forearm L_humerus
L_front_hand L_forearm
L_weapon_bone L_forearm
L_front_hand01_01 L_front_hand
L_front_hand02_01 L_front_hand
L_front_hand03_01 L_front_hand
L_front_hand01_02 L_front_hand01_01
L_front_hand02_02 L_front_hand02_01
L_front_hand03_02 L_front_hand03_01
R_forearm R_humerus
R_front_hand R_forearm
R_weapon_bone R_forearm
R_front_hand01_01 R_front_hand
R_front_hand02_01 R_front_hand
R_front_hand03_01 R_front_hand
R_front_hand01_02 R_front_hand01_01
R_front_hand02_02 R_front_hand02_01
R_front_hand03_02 R_front_hand03_01
null_rope01_connect L_mid_tent01
Rope1_Seg01 null_rope01_connect
Rope1_Seg02 Rope1_Seg01
Rope1_Seg03 Rope1_Seg02
Rope1_Seg04 Rope1_Seg03
Rope1_Seg05 Rope1_Seg04
Rope1_Seg06 Rope1_Seg05
Rope1_Seg07 Rope1_Seg06
Rope1_Seg09 Rope1_Seg07
L_mid_hand01 Rope1_Seg09
L_mid_hand02 Rope1_Seg09
L_mid_hand03 Rope1_Seg09
null_rope02_connect R_mid_tent01
Rope2_Seg01 null_rope02_connect
Rope2_Seg02 Rope2_Seg01
Rope2_Seg03 Rope2_Seg02
Rope2_Seg04 Rope2_Seg03
Rope2_Seg05 Rope2_Seg04
Rope2_Seg06 Rope2_Seg05
Rope2_Seg07 Rope2_Seg06
Rope2_Seg09 Rope2_Seg07
R_mid_hand01 Rope2_Seg09
R_mid_hand02 Rope2_Seg09
R_mid_hand03 Rope2_Seg09
spine02 spine01
spine03 spine02
pelvis spine03
null_rope03_connect pelvis
null_rope04_connect pelvis
Rope3_Seg01 null_rope03_connect
Rope3_Seg02 Rope3_Seg01
Rope3_Seg03 Rope3_Seg02
Rope3_Seg04 Rope3_Seg03
Rope3_Seg05 Rope3_Seg04
Rope3_Seg06 Rope3_Seg05
Rope3_Seg07 Rope3_Seg06
Rope3_Seg08 Rope3_Seg07
Rope3_Seg09 Rope3_Seg08
R_rear_hand01 Rope3_Seg09
R_rear_hand02 Rope3_Seg09
R_rear_hand03 Rope3_Seg09
Rope4_Seg01 null_rope04_connect
Rope4_Seg02 Rope4_Seg01
Rope4_Seg03 Rope4_Seg02
Rope4_Seg04 Rope4_Seg03
Rope4_Seg05 Rope4_Seg04
Rope4_Seg06 Rope4_Seg05
Rope4_Seg07 Rope4_Seg06
Rope4_Seg08 Rope4_Seg07
Rope4_Seg09 Rope4_Seg08
L_rear_hand01 Rope4_Seg09
L_rear_hand02 Rope4_Seg09
L_rear_hand03 Rope4_Seg09
[BasePosition]
#SegmentName Tx, Ty, Tz, Rx, Ry, Rz, BoneLength
MASTER 0.000000 0.000000 0.000000 -90.000000 0.000000 0.000000 10.000000 
root 0.000000 0.000000 0.000000 0.000000 0.000000 0.000000 10.000000 
chest 0.000000 0.000000 0.000000 0.000000 0.000000 0.000000 10.000000 
L_mid_tent01 0.000000 0.000000 0.000000 0.000000 0.000000 0.000000 10.000000 
R_mid_tent01 0.000000 0.000000 0.000000 0.000000 0.000000 0.000000 10.000000 
spine01 0.000000 0.000000 0.000000 0.000000 0.000000 0.000000 10.000000 
Bip01_Neck 0.000000 0.000000 0.000000 0.000000 0.000000 0.000000 10.000000 
L_humerus 0.000000 0.000000 0.000000 0.000000 0.000000 0.000000 10.000000 
R_humerus 0.000000 0.000000 0.000000 0.000000 0.000000 0.000000 10.000000 
weapon_bone 0.000000 0.000000 0.000000 0.000000 0.000000 0.000000 10.000000 
Bip01_Head 0.000000 0.000000 0.000000 0.000000 0.000000 0.000000 10.000000 
eye_left_bone 0.000000 0.000000 0.000000 0.000000 0.000000 0.000000 10.000000 
eye_right_bone 0.000000 0.000000 0.000000 0.000000 0.000000 0.000000 10.000000 
L_forearm 0.000000 0.000000 0.000000 0.000000 0.000000 0.000000 10.000000 
L_front_hand 0.000000 0.000000 0.000000 0.000000 0.000000 0.000000 10.000000 
L_weapon_bone 0.000000 0.000000 0.000000 0.000000 0.000000 0.000000 10.000000 
L_front_hand01_01 0.000000 0.000000 0.000000 0.000000 0.000000 0.000000 10.000000 
L_front_hand02_01 0.000000 0.000000 0.000000 0.000000 0.000000 0.000000 10.000000 
L_front_hand03_01 0.000000 0.000000 0.000000 0.000000 0.000000 0.000000 10.000000 
L_front_hand01_02 0.000000 0.000000 0.000000 0.000000 0.000000 0.000000 10.000000 
L_front_hand02_02 0.000000 0.000000 0.000000 0.000000 0.000000 0.000000 10.000000 
L_front_hand03_02 0.000000 0.000000 0.000000 0.000000 0.000000 0.000000 10.000000 
R_forearm 0.000000 0.000000 0.000000 0.000000 0.000000 0.000000 10.000000 
R_front_hand 0.000000 0.000000 0.000000 0.000000 0.000000 0.000000 10.000000 
R_weapon_bone 0.000000 0.000000 0.000000 0.000000 0.000000 0.000000 10.000000 
R_front_hand01_01 0.000000 0.000000 0.000000 0.000000 0.000000 0.000000 10.000000 
R_front_hand02_01 0.000000 0.000000 0.000000 0.000000 0.000000 0.000000 10.000000 
R_front_hand03_01 0.000000 0.000000 0.000000 0.000000 0.000000 0.000000 10.000000 
R_front_hand01_02 0.000000 0.000000 0.000000 0.000000 0.000000 0.000000 10.000000 
R_front_hand02_02 0.000000 0.000000 0.000000 0.000000 0.000000 0.000000 10.000000 
R_front_hand03_02 0.000000 0.000000 0.000000 0.000000 0.000000 0.000000 10.000000 
null_rope01_connect 0.000000 0.000000 0.000000 0.000000 0.000000 0.000000 10.000000 
Rope1_Seg01 0.000000 0.000000 0.000000 0.000000 0.000000 0.000000 10.000000 
Rope1_Seg02 0.000000 0.000000 0.000000 0.000000 0.000000 0.000000 10.000000 
Rope1_Seg03 0.000000 0.000000 0.000000 0.000000 0.000000 0.000000 10.000000 
Rope1_Seg04 0.000000 0.000000 0.000000 0.000000 0.000000 0.000000 10.000000 
Rope1_Seg05 0.000000 0.000000 0.000000 0.000000 0.000000 0.000000 10.000000 
Rope1_Seg06 0.000000 0.000000 0.000000 0.000000 0.000000 0.000000 10.000000 
Rope1_Seg07 0.000000 0.000000 0.000000 0.000000 0.000000 0.000000 10.000000 
Rope1_Seg09 0.000000 0.000000 0.000000 0.000000 0.000000 0.000000 10.000000 
L_mid_hand01 0.000000 0.000000 0.000000 0.000000 0.000000 0.000000 10.000000 
L_mid_hand02 0.000000 0.000000 0.000000 0.000000 0.000000 0.000000 10.000000 
L_mid_hand03 0.000000 0.000000 0.000000 0.000000 0.000000 0.000000 10.000000 
null_rope02_connect 0.000000 0.000000 0.000000 0.000000 0.000000 0.000000 10.000000 
Rope2_Seg01 0.000000 0.000000 0.000000 0.000000 0.000000 0.000000 10.000000 
Rope2_Seg02 0.000000 0.000000 0.000000 0.000000 0.000000 0.000000 10.000000 
Rope2_Seg03 0.000000 0.000000 0.000000 0.000000 0.000000 0.000000 10.000000 
Rope2_Seg04 0.000000 0.000000 0.000000 0.000000 0.000000 0.000000 10.000000 
Rope2_Seg05 0.000000 0.000000 0.000000 0.000000 0.000000 0.000000 10.000000 
Rope2_Seg06 0.000000 0.000000 0.000000 0.000000 0.000000 0.000000 10.000000 
Rope2_Seg07 0.000000 0.000000 0.000000 0.000000 0.000000 0.000000 10.000000 
Rope2_Seg09 0.000000 0.000000 0.000000 0.000000 0.000000 0.000000 10.000000 
R_mid_hand01 0.000000 0.000000 0.000000 0.000000 0.000000 0.000000 10.000000 
R_mid_hand02 0.000000 0.000000 0.000000 0.000000 0.000000 0.000000 10.000000 
R_mid_hand03 0.000000 0.000000 0.000000 0.000000 0.000000 0.000000 10.000000 
spine02 0.000000 0.000000 0.000000 0.000000 0.000000 0.000000 10.000000 
spine03 0.000000 0.000000 0.000000 0.000000 0.000000 0.000000 10.000000 
pelvis 0.000000 0.000000 0.000000 0.000000 0.000000 0.000000 10.000000 
null_rope03_connect 0.000000 0.000000 0.000000 0.000000 0.000000 0.000000 10.000000 
null_rope04_connect 0.000000 0.000000 0.000000 0.000000 0.000000 0.000000 10.000000 
Rope3_Seg01 0.000000 0.000000 0.000000 0.000000 0.000000 0.000000 10.000000 
Rope3_Seg02 0.000000 0.000000 0.000000 0.000000 0.000000 0.000000 10.000000 
Rope3_Seg03 0.000000 0.000000 0.000000 0.000000 0.000000 0.000000 10.000000 
Rope3_Seg04 0.000000 0.000000 0.000000 0.000000 0.000000 0.000000 10.000000 
Rope3_Seg05 0.000000 0.000000 0.000000 0.000000 0.000000 0.000000 10.000000 
Rope3_Seg06 0.000000 0.000000 0.000000 0.000000 0.000000 0.000000 10.000000 
Rope3_Seg07 0.000000 0.000000 0.000000 0.000000 0.000000 0.000000 10.000000 
Rope3_Seg08 0.000000 0.000000 0.000000 0.000000 0.000000 0.000000 10.000000 
Rope3_Seg09 0.000000 0.000000 0.000000 0.000000 0.000000 0.000000 10.000000 
R_rear_hand01 0.000000 0.000000 0.000000 0.000000 0.000000 0.000000 10.000000 
R_rear_hand02 0.000000 0.000000 0.000000 0.000000 0.000000 0.000000 10.000000 
R_rear_hand03 0.000000 0.000000 0.000000 0.000000 0.000000 0.000000 10.000000 
Rope4_Seg01 0.000000 0.000000 0.000000 0.000000 0.000000 0.000000 10.000000 
Rope4_Seg02 0.000000 0.000000 0.000000 0.000000 0.000000 0.000000 10.000000 
Rope4_Seg03 0.000000 0.000000 0.000000 0.000000 0.000000 0.000000 10.000000 
Rope4_Seg04 0.000000 0.000000 0.000000 0.000000 0.000000 0.000000 10.000000 
Rope4_Seg05 0.000000 0.000000 0.000000 0.000000 0.000000 0.000000 10.000000 
Rope4_Seg06 0.000000 0.000000 0.000000 0.000000 0.000000 0.000000 10.000000 
Rope4_Seg07 0.000000 0.000000 0.000000 0.000000 0.000000 0.000000 10.000000 
Rope4_Seg08 0.000000 0.000000 0.000000 0.000000 0.000000 0.000000 10.000000 
Rope4_Seg09 0.000000 0.000000 0.000000 0.000000 0.000000 0.000000 10.000000 
L_rear_hand01 0.000000 0.000000 0.000000 0.000000 0.000000 0.000000 10.000000 
L_rear_hand02 0.000000 0.000000 0.000000 0.000000 0.000000 0.000000 10.000000 
L_rear_hand03 0.000000 0.000000 0.000000 0.000000 0.000000 0.000000 10.000000 
#Beginning of Data. Separated by tabs
#Fr	Tx	Ty	Tz	Rx	Ry	Rz	SF
[MASTER]
11 0.000000 0.000000 0.000000 0.001660 0.001660 0.001660 0.000000
12 0.000000 0.000000 0.000000 0.001660 0.001660 0.001660 0.000000
[root]
11 -27.884632 -56.740528 1501.395752 -78.216667 -39.024372 -87.973343 1502.726196
12 -27.884632 -56.740528 1501.395752 -78.216667 -39.024372 -87.973343 1502.726196
[chest]
11 -84.512650 -34.090519 0.000000 -2.594532 -0.201363 179.701126 91.129311
12 -84.512650 -34.090519 0.000000 -2.594532 -0.201363 179.701126 91.129311
[L_mid_tent01]
11 27.299511 22.177458 -249.918259 3.862628 36.229202 81.347610 252.381134
12 27.299511 22.177458 -249.918259 3.862626 36.229198 81.347603 252.381134
[R_mid_tent01]
11 23.228794 24.509907 226.238495 160.432037 -47.061241 87.899765 228.744751
12 23.228794 24.509907 226.238495 160.432022 -47.061237 87.899765 228.744751
[spine01]
11 -0.361383 -0.195265 0.000000 0.002062 0.001122 32.879829 0.410763
12 -0.361383 -0.195265 0.000000 0.002062 0.001122 32.879829 0.410763
[Bip01_Neck]
11 165.484543 71.581718 0.000119 176.643677 -1.657967 43.431911 180.302734
12 165.484543 71.581718 0.000119 176.643677 -1.657967 43.431911 180.302734
[L_humerus]
11 -13.983130 -135.272980 -120.471481 156.317398 70.210068 -112.010254 181.680161
12 -13.983130 -135.272980 -120.471481 156.317398 70.210068 -112.010254 181.680161
[R_humerus]
11 -13.983309 -135.273102 125.287651 -172.382263 -66.903831 -92.553993 184.909012
12 -13.983309 -135.273102 125.287651 -172.382263 -66.903831 -92.553993 184.909012
[weapon_bone]
11 235.964890 -300.705902 0.000000 0.000000 -89.951546 -128.212341 382.234833
12 235.964890 -300.705902 0.000000 0.000000 -89.951546 -128.212341 382.234833
[Bip01_Head]
11 213.372025 185.916519 9.179939 9.067745 3.281933 -43.888077 283.155151
12 213.372025 185.916519 9.179942 9.067745 3.281933 -43.888073 283.155151
[eye_left_bone]
11 -24.626970 125.451866 -64.772606 0.000000 -90.000000 -99.840431 143.318359
12 -24.626970 125.451866 -64.772606 0.000000 -90.000000 -99.840431 143.318359
[eye_right_bone]
11 -24.626970 125.451866 64.327362 0.000000 -89.965736 80.156380 143.117676
12 -24.626970 125.451866 64.327362 0.000000 -89.980217 80.156387 143.117676
[L_forearm]
11 322.776093 0.000000 -0.000119 0.000119 -0.002344 -95.807457 322.776093
12 322.776093 0.000000 -0.000119 0.000119 -0.002344 -95.807457 322.776093
[L_front_hand]
11 241.149185 -0.042021 -3.300071 -178.667953 -1.835447 -27.422342 241.171753
12 241.149185 -0.042021 -3.300071 -178.667953 -1.835447 -27.422350 241.171753
[L_weapon_bone]
11 156.183838 0.000000 0.000000 0.000014 0.000007 0.000001 156.183838
12 156.183838 0.000000 0.000000 0.000014 0.000007 0.000001 156.183838
[L_front_hand01_01]
11 86.095154 20.947098 -0.655860 -0.366594 -0.477154 75.385574 88.609184
12 86.095154 20.947098 -0.655860 -0.366594 -0.477154 75.385574 88.609184
[L_front_hand02_01]
11 86.935165 -11.437475 24.513514 154.399796 -59.883835 -61.369587 91.046425
12 86.935165 -11.437475 24.513514 154.399796 -59.883835 -61.369587 91.046425
[L_front_hand03_01]
11 86.637497 -14.123976 -20.424902 -153.913849 58.118122 -62.702866 90.126129
12 86.637497 -14.123976 -20.424902 -153.913879 58.118130 -62.702892 90.126129
[L_front_hand01_02]
11 71.020905 -0.000179 0.000030 0.000334 -0.002323 -106.379684 71.020905
12 71.020905 -0.000179 0.000030 0.000334 -0.002323 -106.379684 71.020905
[L_front_hand02_02]
11 71.020927 -0.000119 0.000060 0.000334 -0.002323 -106.379684 71.020927
12 71.020927 -0.000119 0.000060 0.000334 -0.002323 -106.379684 71.020927
[L_front_hand03_02]
11 71.020905 -0.000060 0.000060 0.000334 -0.002323 -106.379684 71.020905
12 71.020905 -0.000060 0.000060 0.000334 -0.002323 -106.379684 71.020905
[R_forearm]
11 322.776428 -0.000060 0.000030 0.209504 0.012586 -94.339050 322.776428
12 322.776428 -0.000060 0.000030 0.209504 0.012586 -94.339050 322.776428
[R_front_hand]
11 238.847015 -0.006795 2.210259 -2.635298 -10.645461 -26.312506 238.857239
12 238.847015 -0.006795 2.210259 -2.635298 -10.645461 -26.312506 238.857239
[R_weapon_bone]
11 155.664093 0.002503 -0.000030 0.003487 0.001180 -90.988930 155.664078
12 155.664093 0.002503 -0.000030 0.003487 0.001180 -90.988930 155.664078
[R_front_hand01_01]
11 87.624611 14.231146 22.918642 -154.633499 -59.950619 61.746044 91.683487
12 87.624611 14.231146 22.918642 -154.633514 -59.950626 61.746063 91.683487
[R_front_hand02_01]
11 89.356956 14.367283 -19.491137 154.602661 58.302849 63.744389 92.579636
12 89.356956 14.367283 -19.491137 154.602661 58.302864 63.744389 92.579636
[R_front_hand03_01]
11 87.286232 -22.307278 -0.143439 0.162155 -0.423168 -75.767921 90.091743
12 87.286232 -22.307278 -0.143439 0.162155 -0.423168 -75.767921 90.091743
[R_front_hand01_02]
11 71.020905 0.000060 0.000119 0.002323 -0.000334 106.381714 71.020905
12 71.020905 0.000060 0.000119 0.002323 -0.000334 106.381721 71.020905
[R_front_hand02_02]
11 71.020844 -0.000030 -0.000119 0.002323 -0.000334 106.381714 71.020836
12 71.020844 -0.000030 -0.000119 0.002323 -0.000334 106.381721 71.020836
[R_front_hand03_02]
11 71.020905 0.000000 0.000030 0.002323 -0.000334 106.381714 71.020905
12 71.020905 0.000000 0.000030 0.002323 -0.000334 106.381721 71.020905
[null_rope01_connect]
11 328.732483 0.000000 -0.000238 -121.867149 -66.548218 170.046249 328.732483
12 328.732483 0.000000 -0.000238 -121.867149 -66.548218 170.046249 328.732483
[Rope1_Seg01]
11 0.000000 0.000000 0.000000 106.987076 -0.143355 -168.821869 0.000000
12 0.000000 0.000000 0.000000 106.506027 -0.803344 -168.671539 0.000000
[Rope1_Seg02]
11 139.999863 -0.000179 0.000000 13.820249 -15.553664 -10.338457 139.999863
12 139.999863 -0.000179 0.000000 13.954010 -15.524481 -10.651725 139.999863
[Rope1_Seg03]
11 139.999924 0.000060 -0.000060 18.649878 -27.438414 -15.974837 139.999924
12 139.999924 0.000060 -0.000060 19.244068 -27.796906 -16.688480 139.999924
[Rope1_Seg04]
11 139.999924 -0.000060 -0.000119 4.163464 -27.212671 -0.792596 139.999924
12 139.999924 -0.000060 -0.000119 4.320504 -27.165335 -1.129171 139.999924
[Rope1_Seg05]
11 139.999832 0.000119 -0.000060 -2.963863 -17.333574 15.909077 139.999832
12 139.999832 0.000119 -0.000060 -2.752520 -16.674976 15.937444 139.999832
[Rope1_Seg06]
11 139.999954 0.000119 -0.000060 -1.870495 -9.296638 6.877072 139.999954
12 139.999954 0.000119 -0.000060 -1.696559 -9.135399 7.123058 139.999954
[Rope1_Seg07]
11 139.999985 0.000060 0.000000 -1.453012 -5.116783 3.072203 139.999985
12 139.999985 0.000060 0.000000 -1.348455 -5.068647 3.200590 139.999985
[Rope1_Seg09]
11 121.602913 0.000119 -0.000089 -89.793175 -1.359789 0.847147 121.602913
12 121.602913 0.000119 -0.000089 -89.793175 -1.359789 0.847147 121.602913
[L_mid_hand01]
11 103.859421 1.038730 8.195221 130.544373 -67.584534 -38.866943 104.187431
12 103.859421 1.038730 8.195221 130.544373 -67.584534 -38.866943 104.187431
[L_mid_hand02]
11 105.572853 -4.139662 -10.864139 -168.923172 43.409309 -73.498886 106.211075
12 105.572853 -4.139662 -10.864139 -168.923172 43.409309 -73.498886 106.211075
[L_mid_hand03]
11 104.641464 17.579376 -3.913581 -6.012627 17.808174 74.893669 106.179977
12 104.641464 17.579376 -3.913581 -6.012628 17.808178 74.893669 106.179977
[null_rope02_connect]
11 328.732849 0.000179 -0.000119 -116.101486 27.529919 12.015828 328.732849
12 328.732849 0.000179 -0.000119 -116.101486 27.529917 12.015827 328.732849
[Rope2_Seg01]
11 -0.000038 0.000153 0.000000 -38.194576 0.431666 -2.628696 0.000157
12 -0.000038 0.000153 0.000000 -38.312748 0.557340 -2.621382 0.000157
[Rope2_Seg02]
11 139.999741 -0.000060 -0.000119 -15.603642 5.764824 15.565431 139.999756
12 139.999741 -0.000060 -0.000119 -15.604435 5.719694 15.566236 139.999756
[Rope2_Seg03]
11 140.000107 0.000030 0.000000 -14.866445 0.814502 21.962597 140.000107
12 140.000107 0.000030 0.000000 -14.822316 0.749425 21.919365 140.000107
[Rope2_Seg04]
11 139.999802 0.000000 -0.000060 -7.521647 -4.459570 18.053688 139.999802
12 139.999802 0.000000 -0.000060 -7.497401 -4.481685 17.998854 139.999802
[Rope2_Seg05]
11 139.999985 -0.000060 0.000119 -4.214957 -0.488216 16.192425 139.999985
12 139.999985 -0.000060 0.000119 -4.237155 -0.495857 16.307909 139.999985
[Rope2_Seg06]
11 139.999893 -0.000030 -0.000119 -2.515670 -0.016669 19.547813 139.999893
12 139.999893 -0.000030 -0.000119 -2.503808 -0.060812 19.689302 139.999893
[Rope2_Seg07]
11 139.999893 0.000060 -0.000060 -0.258517 -1.616080 13.788939 139.999893
12 139.999893 0.000060 -0.000060 -0.221362 -1.635511 13.813392 139.999893
[Rope2_Seg09]
11 121.338966 0.000089 -0.000060 33.793236 -1.359788 -0.847141 121.338966
12 121.338966 0.000089 -0.000060 33.793236 -1.359788 -0.847141 121.338966
[R_mid_hand01]
11 104.680779 11.144459 -10.335981 -16.212063 45.237247 70.462852 105.778534
12 104.680779 11.144459 -10.335981 -16.212059 45.237240 70.462852 105.778534
[R_mid_hand02]
11 104.070427 2.443552 8.231699 49.067368 -67.749771 39.286453 104.424065
12 104.070427 2.443552 8.231699 49.067387 -67.749794 39.286469 104.424065
[R_mid_hand03]
11 106.028137 -11.221827 -5.996406 -177.101105 15.551026 -76.585571 106.788818
12 106.028137 -11.221827 -5.996406 -177.101105 15.551026 -76.585571 106.788818
[spine02]
11 129.756927 0.001550 0.000119 -1.023899 -3.926965 6.770993 129.756927
12 129.756927 0.001550 0.000119 -1.023899 -3.926965 6.770992 129.756927
[spine03]
11 78.613846 0.087372 -4.898873 1.040681 4.146420 4.212376 78.766380
12 78.613846 0.087372 -4.898873 1.040680 4.146420 4.212376 78.766380
[pelvis]
11 169.435242 0.051022 0.000000 0.019518 -0.190233 -10.721436 169.435257
12 169.435242 0.051022 0.000000 0.019518 -0.190233 -10.721436 169.435257
[null_rope03_connect]
11 -1.257226 -2.466202 137.391083 46.458321 -77.110146 49.356079 137.418976
12 -1.257226 -2.466202 137.391083 46.458317 -77.110176 49.356113 137.418976
[null_rope04_connect]
11 -1.259640 -2.480268 -137.844437 46.458321 -77.110146 49.356079 137.872513
12 -1.259640 -2.480268 -137.844437 46.458317 -77.110176 49.356113 137.872513
[Rope3_Seg01]
11 0.000000 0.000000 0.000000 -148.628067 -79.030052 -72.642700 0.000000
12 0.000000 0.000000 0.000000 -148.523102 -79.142006 -72.784950 0.000000
[Rope3_Seg02]
11 139.999924 -0.000119 0.000060 -0.186027 -5.448427 -11.704821 139.999924
12 139.999924 -0.000119 0.000060 -0.125956 -5.536367 -11.628366 139.999924
[Rope3_Seg03]
11 139.999924 -0.000119 0.000119 -0.934148 -6.832304 -14.533775 139.999924
12 139.999924 -0.000119 0.000119 -0.797094 -7.040907 -14.626912 139.999924
[Rope3_Seg04]
11 139.999924 0.000119 0.000000 2.882090 -9.346489 -12.353190 139.999924
12 139.999924 0.000119 0.000000 3.289904 -9.717904 -12.606482 139.999924
[Rope3_Seg05]
11 139.999924 -0.000238 0.000060 -10.893154 -3.017642 -11.619773 139.999924
12 139.999924 -0.000238 0.000060 -11.305451 -3.206927 -11.829738 139.999924
[Rope3_Seg06]
11 139.999893 -0.000119 -0.000060 -81.349030 9.482117 -24.378893 139.999893
12 139.999893 -0.000119 -0.000060 -84.246307 9.742744 -24.783978 139.999893
[Rope3_Seg07]
11 139.999771 0.000060 -0.000119 -22.860510 30.816280 6.500361 139.999771
12 139.999771 0.000060 -0.000119 -20.575872 30.303761 8.112022 139.999771
[Rope3_Seg08]
11 139.999985 -0.000060 0.000000 -2.309587 12.777785 8.312478 139.999985
12 139.999985 -0.000060 0.000000 -2.054497 12.482073 8.418456 139.999985
[Rope3_Seg09]
11 90.185997 -0.000179 -0.000060 89.793228 -1.359877 -0.847183 90.185997
12 90.185997 -0.000179 -0.000060 89.793228 -1.359877 -0.847183 90.185997
[R_rear_hand01]
11 103.366196 -6.073594 -10.757982 -177.714203 24.565960 -73.910950 104.101845
12 103.366196 -6.073594 -10.757982 -177.714203 24.565960 -73.910950 104.101845
[R_rear_hand02]
11 100.509819 12.039542 -7.992327 -12.874829 36.868488 72.167213 101.543350
12 100.509819 12.039542 -7.992327 -12.874829 36.868488 72.167213 101.543350
[R_rear_hand03]
11 101.539970 5.215704 5.435467 71.484581 -71.816628 21.513813 101.819031
12 101.539970 5.215704 5.435467 71.484634 -71.816666 21.513840 101.819031
[Rope4_Seg01]
11 0.000017 -0.000114 -0.000153 67.690079 -40.577312 -125.916153 0.000191
12 0.000015 -0.000114 -0.000153 67.704605 -40.522511 -125.984207 0.000191
[Rope4_Seg02]
11 139.999985 0.000060 0.000119 2.545172 -13.186140 -3.054406 139.999985
12 139.999985 0.000060 0.000119 2.552920 -13.164718 -3.035944 139.999985
[Rope4_Seg03]
11 139.999924 0.000000 -0.000238 10.289804 -22.114151 -4.513556 139.999924
12 139.999924 0.000000 -0.000238 10.316100 -22.086327 -4.475580 139.999924
[Rope4_Seg04]
11 139.999985 0.000000 0.000119 59.412571 -23.789747 -1.867850 139.999985
12 139.999985 0.000000 0.000119 59.526787 -23.815639 -1.710171 139.999985
[Rope4_Seg05]
11 139.999802 -0.000060 -0.000119 66.101318 -9.360134 17.649748 139.999802
12 139.999802 -0.000060 -0.000119 65.831665 -9.406273 17.687477 139.999802
[Rope4_Seg06]
11 139.999924 0.000000 0.000060 15.579773 20.468750 22.501680 139.999924
12 139.999924 0.000000 0.000060 15.786176 19.909889 22.432173 139.999924
[Rope4_Seg07]
11 139.999802 0.000000 0.000000 4.071532 17.016312 12.561754 139.999802
12 139.999802 0.000000 0.000000 4.092770 16.653795 12.445598 139.999802
[Rope4_Seg08]
11 139.999924 0.000000 0.000119 -0.694785 7.927533 5.344459 139.999924
12 139.999924 0.000000 0.000119 -0.672227 7.844471 5.331351 139.999924
[Rope4_Seg09]
11 90.185791 0.000060 0.000060 -135.617828 2.228885 0.850567 90.185791
12 90.185791 0.000060 0.000060 -135.617828 2.228885 0.850567 90.185791
[L_rear_hand01]
11 101.696655 -8.392275 -7.654577 -12.874829 -36.868488 107.832764 102.329041
12 101.696655 -8.392275 -7.654577 -12.874829 -36.868488 107.832764 102.329041
[L_rear_hand02]
11 102.726799 -1.568258 5.773216 71.484581 71.816628 158.486160 102.900848
12 102.726799 -1.568258 5.773216 71.484634 71.816666 158.486176 102.900848
[L_rear_hand03]
11 104.552910 9.721220 -10.420293 -177.714203 -24.565960 -106.089035 105.519653
12 104.552910 9.721220 -10.420293 -177.714203 -24.565960 -106.089035 105.519653
